<svg xmlns="http://www.w3.org/2000/svg" version="1.1" xmlns:xlink="http://www.w3.org/1999/xlink" xmlns:svgjs="http://svgjs.com/svgjs" width="512" height="512" x="0" y="0" viewBox="0 0 36 36" style="enable-background:new 0 0 512 512" xml:space="preserve" class=""><g><path fill-rule="evenodd" d="M32.66 3.34A4.57 4.57 0 0 0 29.43 2H6.57A4.57 4.57 0 0 0 2 6.57v22.86A4.57 4.57 0 0 0 6.57 34h22.86A4.57 4.57 0 0 0 34 29.43V6.57a4.57 4.57 0 0 0-1.34-3.23zM12.29 6.57a1.14 1.14 0 1 1-1.14 1.14 1.14 1.14 0 0 1 1.14-1.14zM7.71 8.86a1.14 1.14 0 1 1 1.15-1.15 1.14 1.14 0 0 1-1.15 1.15zm7.72 15.26L13.7 25.6l-3.43-4a1.14 1.14 0 0 1 0-1.49l3.43-4 1.74 1.49-2.79 3.26zm10.29-2.52-3.43 4-1.74-1.49 2.79-3.26-2.78-3.25 1.74-1.49 3.43 4a1.14 1.14 0 0 1-.01 1.49z" fill="white" data-original="#000000" class=""></path></g></svg>